<?xml version="1.0" standalone="no"?>
<!DOCTYPE svg PUBLIC "-//W3C//DTD SVG 20010904//EN" "http://www.w3.org/TR/2001/REC-SVG-20010904/DTD/svg10.dtd">
<svg version="1.0" xmlns="http://www.w3.org/2000/svg" width="189.000000pt" height="159.000000pt"
  viewBox="0 0 189.000000 159.000000" preserveAspectRatio="xMidYMid meet">

  <g transform="translate(0.000000,159.000000) scale(0.100000,-0.100000)" fill="#878681" stroke="none">
    <path d="M610 1467 c0 -36 5 -68 12 -75 9 -9 89 -12 298 -12 333 0 320 -4 320
93 l0 57 -315 0 -315 0 0 -63z" />
    <path d="M762 1273 l3 -48 158 -3 157 -3 0 51 0 50 -161 0 -160 0 3 -47z" />
    <path d="M730 1150 c-26 -26 -28 -133 -4 -168 15 -21 20 -22 198 -22 128 0
186 4 194 12 7 7 12 42 12 88 0 112 3 110 -208 110 -159 0 -174 -2 -192 -20z" />
    <path d="M820 841 l0 -69 105 41 c99 39 105 43 105 69 l0 28 -105 0 -105 0 0
-69z" />
    <path d="M622 788 c-25 -25 -13 -64 33 -107 50 -46 52 -47 83 -25 34 24 29 63
-16 107 -39 38 -77 48 -100 25z" />
    <path d="M1121 756 c-36 -36 -42 -49 -37 -70 14 -58 75 -51 130 14 31 37 33
61 8 83 -30 27 -55 20 -101 -27z" />
    <path d="M918 738 l-98 -40 0 -39 c0 -25 5 -39 13 -38 6 0 53 17 102 37 l90
37 3 43 c2 23 0 42 -5 41 -4 0 -52 -19 -105 -41z" />
    <path d="M920 582 l-95 -37 -3 -44 c-3 -33 0 -42 10 -38 7 2 55 21 106 42 l92
37 0 39 c0 21 -3 39 -7 39 -5 0 -51 -17 -103 -38z" />
    <path d="M622 578 c-23 -23 -13 -63 26 -101 56 -54 112 -48 112 13 0 34 -66
100 -101 100 -14 0 -30 -5 -37 -12z" />
    <path d="M1120 545 c-40 -40 -43 -47 -34 -72 16 -47 58 -43 110 8 48 47 54 67
26 92 -30 27 -55 20 -102 -28z" />
    <path d="M913 422 c-70 -28 -93 -42 -93 -55 0 -29 18 -56 50 -72 45 -23 85
-19 122 14 27 24 32 36 36 90 3 47 1 61 -9 60 -8 0 -56 -17 -106 -37z" />
    <path d="M202 368 c-17 -17 -17 -269 0 -286 9 -9 182 -12 718 -12 672 0 708 1
723 18 24 26 25 253 1 276 -13 14 -50 16 -248 16 -213 0 -234 -2 -249 -18 -10
-10 -17 -26 -17 -36 0 -26 -28 -74 -49 -86 -11 -5 -83 -10 -160 -10 -135 0
-140 1 -170 26 -19 16 -33 39 -37 62 -4 20 -11 43 -17 50 -13 17 -478 17 -495
0z" />
  </g>
</svg>